<svg width="25" height="24" viewBox="0 0 25 24" fill="none" xmlns="http://www.w3.org/2000/svg">
<mask id="mask0_1220_67565" style="mask-type:alpha" maskUnits="userSpaceOnUse" x="0" y="0" width="25" height="24">
<rect x="0.5" width="24" height="24" fill="#D9D9D9"/>
</mask>
<g mask="url(#mask0_1220_67565)">
<path d="M12.5 11.3845C11.675 11.3845 10.9688 11.0908 10.3812 10.5033C9.79375 9.9158 9.5 9.20955 9.5 8.38455C9.5 7.55953 9.79375 6.85327 10.3812 6.26577C10.9688 5.67827 11.675 5.38452 12.5 5.38452C13.325 5.38452 14.0313 5.67827 14.6188 6.26577C15.2063 6.85327 15.5 7.55953 15.5 8.38455C15.5 9.20955 15.2063 9.9158 14.6188 10.5033C14.0313 11.0908 13.325 11.3845 12.5 11.3845ZM18.4615 18.6153H6.53845C6.24487 18.6153 5.99839 18.5156 5.79902 18.3163C5.59967 18.1169 5.5 17.8704 5.5 17.5768V16.9691C5.5 16.5563 5.62019 16.1701 5.86058 15.8105C6.10096 15.4509 6.42436 15.1717 6.83078 14.973C7.77436 14.5204 8.71858 14.181 9.66345 13.9547C10.6083 13.7284 11.5539 13.6153 12.5 13.6153C13.4461 13.6153 14.3917 13.7284 15.3365 13.9547C16.2814 14.181 17.2256 14.5204 18.1692 14.973C18.5756 15.1717 18.899 15.4509 19.1394 15.8105C19.3798 16.1701 19.5 16.5563 19.5 16.9691V17.5768C19.5 17.8704 19.4003 18.1169 19.201 18.3163C19.0016 18.5156 18.7551 18.6153 18.4615 18.6153ZM6.5 17.6153H18.5V16.9691C18.5 16.7474 18.4285 16.539 18.2856 16.3441C18.1426 16.1493 17.9449 15.9845 17.6923 15.8499C16.8692 15.4512 16.0206 15.1458 15.1464 14.9336C14.2722 14.7214 13.3901 14.6153 12.5 14.6153C11.6099 14.6153 10.7278 14.7214 9.8536 14.9336C8.9794 15.1458 8.13077 15.4512 7.3077 15.8499C7.05513 15.9845 6.85737 16.1493 6.71442 16.3441C6.57148 16.539 6.5 16.7474 6.5 16.9691V17.6153ZM12.5 10.3845C13.05 10.3845 13.5208 10.1887 13.9125 9.79705C14.3042 9.40538 14.5 8.93455 14.5 8.38455C14.5 7.83455 14.3042 7.36371 13.9125 6.97205C13.5208 6.58038 13.05 6.38455 12.5 6.38455C11.95 6.38455 11.4792 6.58038 11.0875 6.97205C10.6958 7.36371 10.5 7.83455 10.5 8.38455C10.5 8.93455 10.6958 9.40538 11.0875 9.79705C11.4792 10.1887 11.95 10.3845 12.5 10.3845Z" fill="#262626"/>
</g>
</svg>
