<svg width="25" height="24" viewBox="0 0 25 24" fill="none" xmlns="http://www.w3.org/2000/svg">
<mask id="mask0_322_20772" style="mask-type:alpha" maskUnits="userSpaceOnUse" x="0" y="0" width="25" height="24">
<rect x="0.5" width="24" height="24" fill="#D9D9D9"/>
</mask>
<g mask="url(#mask0_322_20772)">
<path d="M12.5 11.3847C11.6692 11.3847 10.9615 11.0924 10.3769 10.5077C9.79231 9.92313 9.5 9.21544 9.5 8.38467C9.5 7.55389 9.79231 6.84619 10.3769 6.26157C10.9615 5.67695 11.6692 5.38464 12.5 5.38464C13.3308 5.38464 14.0385 5.67695 14.6231 6.26157C15.2077 6.84619 15.5 7.55389 15.5 8.38467C15.5 9.21544 15.2077 9.92313 14.6231 10.5077C14.0385 11.0924 13.3308 11.3847 12.5 11.3847ZM6.53845 18.6154C6.24487 18.6154 5.99839 18.5158 5.79902 18.3164C5.59967 18.117 5.5 17.8706 5.5 17.577V16.9693C5.5 16.5565 5.62019 16.1702 5.86058 15.8106C6.10096 15.451 6.42436 15.1718 6.83078 14.9731C7.77436 14.5206 8.71858 14.1811 9.66345 13.9548C10.6083 13.7286 11.5539 13.6154 12.5 13.6154C13.4461 13.6154 14.3917 13.7286 15.3365 13.9548C16.2814 14.1811 17.2256 14.5206 18.1692 14.9731C18.5756 15.1718 18.899 15.451 19.1394 15.8106C19.3798 16.1702 19.5 16.5565 19.5 16.9693V17.577C19.5 17.8706 19.4003 18.117 19.201 18.3164C19.0016 18.5158 18.7551 18.6154 18.4615 18.6154H6.53845Z" fill="#CF385B"/>
</g>
</svg>
