<svg width="25" height="23" viewBox="0 0 25 23" fill="none" xmlns="http://www.w3.org/2000/svg">
<mask id="mask0_18_22" style="mask-type:alpha" maskUnits="userSpaceOnUse" x="0" y="0" width="25" height="24">
<path d="M24.5 0H0.5V24H24.5V0Z" fill="#D9D9D9"/>
</mask>
<g mask="url(#mask0_18_22)">
<path d="M12.5 20.0001C10.832 20.0001 9.41506 19.417 8.24902 18.251C7.08301 17.085 6.5 15.668 6.5 14.0001C6.5 12.6257 6.91442 11.401 7.74327 10.326C8.57211 9.251 9.65319 8.54171 10.9865 8.19813C10.6532 8.12761 10.325 8.01959 10.0019 7.87408C9.67884 7.72858 9.39871 7.53724 9.16153 7.30005C8.71409 6.85262 8.42403 6.32345 8.29135 5.71255C8.15865 5.10165 8.10192 4.48145 8.12115 3.85195C8.725 3.83273 9.32276 3.88627 9.91442 4.01255C10.5061 4.13882 11.0256 4.41285 11.4731 4.83465C11.8564 5.17953 12.1292 5.59044 12.2913 6.06735C12.4535 6.54427 12.5532 7.04299 12.5904 7.5635C12.7942 7.07249 13.0407 6.60742 13.3298 6.1683C13.6189 5.7292 13.9551 5.31798 14.3385 4.93465C14.4321 4.84107 14.55 4.79428 14.6923 4.79428C14.8346 4.79428 14.9526 4.84107 15.0462 4.93465C15.1398 5.02825 15.1865 5.1462 15.1865 5.2885C15.1865 5.43082 15.1398 5.54877 15.0462 5.64235C14.6923 5.9962 14.3801 6.37793 14.1096 6.78755C13.8391 7.19717 13.618 7.63274 13.4462 8.09428C14.9128 8.31736 16.1218 8.98691 17.0731 10.1029C18.0244 11.219 18.5 12.518 18.5 14.0001C18.5 15.668 17.917 17.085 16.751 18.251C15.5849 19.417 14.168 20.0001 12.5 20.0001Z" fill="#CF385B"/>
</g>
</svg>
