<svg width="25" height="24" viewBox="0 0 25 24" fill="none" xmlns="http://www.w3.org/2000/svg">
<mask id="mask0_1220_67556" style="mask-type:alpha" maskUnits="userSpaceOnUse" x="0" y="0" width="25" height="24">
<rect x="0.5" width="24" height="24" fill="#D9D9D9"/>
</mask>
<g mask="url(#mask0_1220_67556)">
<path d="M6.5444 19.9999C6.18415 19.9999 5.85786 19.8945 5.56555 19.6836C5.27325 19.4727 5.07965 19.189 4.98477 18.8326L2.78095 11.0249C2.71043 10.7723 2.75498 10.5384 2.9146 10.323C3.07421 10.1076 3.28863 9.9999 3.55785 9.9999H8.25017L12.1117 4.18065C12.1566 4.11142 12.2156 4.05758 12.2886 4.01913C12.3617 3.98066 12.4367 3.96143 12.5136 3.96143C12.5906 3.96143 12.6656 3.98066 12.7386 4.01913C12.8117 4.05758 12.8707 4.11142 12.9155 4.18065L16.7386 9.9999H21.4425C21.7117 9.9999 21.9293 10.1076 22.0954 10.323C22.2614 10.5384 22.3028 10.7723 22.2194 11.0249L19.9771 18.8326C19.8822 19.189 19.6886 19.4727 19.3963 19.6836C19.104 19.8945 18.7777 19.9999 18.4175 19.9999H6.5444ZM12.5002 15.9999C12.7681 15.9999 13.0018 15.9002 13.2011 15.7009C13.4005 15.5015 13.5002 15.2679 13.5002 14.9999C13.5002 14.732 13.4005 14.4983 13.2011 14.2989C13.0018 14.0996 12.7681 13.9999 12.5002 13.9999C12.2322 13.9999 11.9986 14.0996 11.7992 14.2989C11.5998 14.4983 11.5002 14.732 11.5002 14.9999C11.5002 15.2679 11.5998 15.5015 11.7992 15.7009C11.9986 15.9002 12.2322 15.9999 12.5002 15.9999ZM9.46365 9.9999H15.5309L12.4944 5.37683L9.46365 9.9999Z" fill="#CF385B"/>
</g>
</svg>
