<svg width="24" height="24" viewBox="0 0 24 24" fill="none" xmlns="http://www.w3.org/2000/svg">
<path d="M6.36347 11.6231L3.15962 8.5923C3.05321 8.51153 3 8.4032 3 8.2673C3 8.1314 3.0468 8.01025 3.1404 7.90385C3.23398 7.79743 3.34872 7.73782 3.48462 7.725C3.62052 7.71218 3.74167 7.75897 3.84807 7.86537L6.24807 10.15L6.12115 8.43463L9.07692 5.47885C9.22179 5.33397 9.39583 5.21794 9.59905 5.13078C9.80221 5.04359 10.0115 5 10.2269 5H14.0385C14.2538 5 14.4631 5.04359 14.6663 5.13078C14.8696 5.21794 15.0436 5.33397 15.1885 5.47885L18.1442 8.43463L18.0173 10.15L20.4173 7.86537C20.5237 7.75897 20.6449 7.71218 20.7808 7.725C20.9167 7.73782 21.0314 7.79743 21.125 7.90385C21.2186 8.01025 21.2654 8.1314 21.2654 8.2673C21.2654 8.4032 21.2122 8.51153 21.1058 8.5923L17.9019 11.6231H6.36347ZM8.50962 20C8.09167 20 7.72629 19.8571 7.41347 19.5712C7.10064 19.2853 6.92756 18.9333 6.89422 18.5154L6.36347 11.6231H17.9019L17.3712 18.5154C17.3378 18.9333 17.1647 19.2853 16.8519 19.5712C16.5391 19.8571 16.1737 20 15.7558 20H8.50962Z" fill="#CF385B"/>
</svg>
