<svg width="25" height="24" viewBox="0 0 25 24" fill="none" xmlns="http://www.w3.org/2000/svg">
<mask id="mask0_1220_67559" style="mask-type:alpha" maskUnits="userSpaceOnUse" x="0" y="0" width="25" height="24">
<rect x="0.5" width="24" height="24" fill="#D9D9D9"/>
</mask>
<g mask="url(#mask0_1220_67559)">
<path d="M8.87681 18H16.1345C16.3012 18 16.4422 17.9455 16.5576 17.8366C16.673 17.7276 16.7371 17.5897 16.7499 17.4231L17.2633 10.6923H7.74219L8.26144 17.4231C8.27425 17.5897 8.33835 17.7276 8.45374 17.8366C8.56912 17.9455 8.71015 18 8.87681 18ZM7.66911 9.6923H17.3364L17.4883 7.78845L14.823 5.17307C14.7589 5.10897 14.6916 5.0641 14.621 5.03845C14.5505 5.01282 14.4768 5 14.3999 5H10.5999C10.523 5 10.4493 5.01282 10.3787 5.03845C10.3082 5.0641 10.2409 5.10897 10.1768 5.17307L7.51144 7.78845L7.66911 9.6923ZM6.73066 10.6231L3.52681 7.5923C3.4204 7.51153 3.36719 7.4032 3.36719 7.2673C3.36719 7.1314 3.41399 7.01025 3.50759 6.90385C3.60117 6.79743 3.71591 6.73782 3.85181 6.725C3.98771 6.71218 4.10886 6.75897 4.21526 6.86537L6.61526 9.15L6.48834 7.43463L9.44411 4.47885C9.58898 4.33397 9.76302 4.21794 9.96624 4.13078C10.1694 4.04359 10.3787 4 10.5941 4H14.4057C14.621 4 14.8303 4.04359 15.0335 4.13078C15.2368 4.21794 15.4108 4.33397 15.5557 4.47885L18.5114 7.43463L18.3845 9.15L20.7845 6.86537C20.8909 6.75897 21.0121 6.71218 21.148 6.725C21.2839 6.73782 21.3986 6.79743 21.4922 6.90385C21.5858 7.01025 21.6326 7.1314 21.6326 7.2673C21.6326 7.4032 21.5794 7.51153 21.473 7.5923L18.2691 10.6231H6.73066ZM8.87681 19C8.45886 19 8.09348 18.8571 7.78066 18.5712C7.46783 18.2853 7.29475 17.9333 7.26141 17.5154L6.73066 10.6231H18.2691L17.7384 17.5154C17.705 17.9333 17.5319 18.2853 17.2191 18.5712C16.9063 18.8571 16.5409 19 16.123 19H8.87681Z" fill="#262626"/>
</g>
</svg>
