<svg width="23" height="23" viewBox="0 0 23 23" fill="none" xmlns="http://www.w3.org/2000/svg">
<mask id="mask0_35_21" style="mask-type:alpha" maskUnits="userSpaceOnUse" x="-2" y="-1" width="25" height="24">
<path d="M22.125 -1H-1.875V23H22.125V-1Z" fill="#D9D9D9"/>
</mask>
<g mask="url(#mask0_35_21)">
<path d="M17.5249 8.37501L16.8365 7.68654L17.3173 7.18079C17.4455 7.05257 17.5096 6.90834 17.5096 6.74809C17.5096 6.58783 17.4455 6.4436 17.3173 6.31539L14.8096 3.80769C14.6814 3.67949 14.5371 3.61539 14.3769 3.61539C14.2166 3.61539 14.0724 3.67949 13.9442 3.80769L13.4384 4.28846L12.7249 3.57501L13.2826 2.99231C13.5762 2.69873 13.9358 2.5561 14.3615 2.56444C14.7871 2.57277 15.1467 2.72373 15.4403 3.01731L18.1076 5.68461C18.4012 5.97821 18.548 6.33366 18.548 6.75096C18.548 7.16828 18.4012 7.52373 18.1076 7.81731L17.5249 8.37501ZM6.96724 18.9577C6.67366 19.2513 6.31821 19.3981 5.90089 19.3981C5.48359 19.3981 5.12814 19.2513 4.83454 18.9577L2.24417 16.3673C1.93775 16.0609 1.78454 15.6798 1.78454 15.2241C1.78454 14.7683 1.93775 14.3872 2.24417 14.0808L2.72494 13.6L3.43839 14.3135L2.95187 14.7942C2.82365 14.9225 2.75954 15.0667 2.75954 15.2269C2.75954 15.3872 2.82365 15.5314 2.95187 15.6596L5.46532 18.1731C5.59353 18.3013 5.73777 18.3654 5.89802 18.3654C6.05827 18.3654 6.2025 18.3013 6.33072 18.1731L6.81147 17.6866L7.52494 18.4L6.96724 18.9577ZM16.6999 12.1539L17.8365 11.0173C17.9647 10.8891 18.0288 10.7417 18.0288 10.575C18.0288 10.4083 17.9647 10.2609 17.8365 10.1327L10.9922 3.28846C10.864 3.16026 10.7166 3.09616 10.5499 3.09616C10.3833 3.09616 10.2358 3.16026 10.1076 3.28846L8.9711 4.42501C8.8429 4.55321 8.7788 4.69744 8.7788 4.85771C8.7788 5.01796 8.8429 5.16219 8.9711 5.29039L15.8346 12.1539C15.9628 12.2821 16.107 12.3462 16.2672 12.3462C16.4275 12.3462 16.5717 12.2821 16.6999 12.1539ZM10.1422 18.7116L11.2788 17.5692C11.407 17.441 11.4711 17.2968 11.4711 17.1366C11.4711 16.9763 11.407 16.8321 11.2788 16.7039L4.42109 9.8462C4.29289 9.718 4.14866 9.6539 3.98839 9.6539C3.82814 9.6539 3.68392 9.718 3.55572 9.8462L2.41339 10.9827C2.28519 11.1109 2.22109 11.2583 2.22109 11.425C2.22109 11.5917 2.28519 11.7391 2.41339 11.8673L9.2576 18.7116C9.3858 18.8398 9.5333 18.9039 9.6999 18.9039C9.8666 18.9039 10.014 18.8398 10.1422 18.7116ZM9.4346 13.4385L12.5692 10.3096L10.8153 8.55579L7.68649 11.6904L9.4346 13.4385ZM10.8365 19.4192C10.5301 19.7257 10.1512 19.8789 9.6999 19.8789C9.2487 19.8789 8.8698 19.7257 8.5634 19.4192L1.70572 12.5616C1.3993 12.2551 1.24609 11.8763 1.24609 11.425C1.24609 10.9737 1.3993 10.5949 1.70572 10.2885L2.84224 9.1327C3.14866 8.82629 3.52975 8.67309 3.98552 8.67309C4.44129 8.67309 4.82238 8.82629 5.12879 9.1327L6.97302 10.9769L10.1076 7.84231L8.2634 6.00386C7.95699 5.69744 7.80379 5.31539 7.80379 4.85771C7.80379 4.40001 7.95699 4.01795 8.2634 3.71154L9.4192 2.55579C9.7256 2.24937 10.1067 2.09616 10.5624 2.09616C11.0182 2.09616 11.3993 2.24937 11.7057 2.55579L18.5692 9.4192C18.8756 9.7257 19.0288 10.1067 19.0288 10.5625C19.0288 11.0183 18.8756 11.3994 18.5692 11.7058L17.4134 12.8616C17.107 13.168 16.7249 13.3212 16.2672 13.3212C15.8096 13.3212 15.4275 13.168 15.1211 12.8616L13.2826 11.0173L10.148 14.1519L11.9922 15.9962C12.2987 16.3026 12.4519 16.6837 12.4519 17.1394C12.4519 17.5952 12.2987 17.9763 11.9922 18.2827L10.8365 19.4192Z" fill="#CF385B"/>
<path d="M16.6999 12.1539L17.8365 11.0173C17.9647 10.8891 18.0288 10.7417 18.0288 10.575C18.0288 10.4083 17.9647 10.2609 17.8365 10.1327L10.9922 3.28846C10.864 3.16026 10.7166 3.09616 10.5499 3.09616C10.3833 3.09616 10.2358 3.16026 10.1076 3.28846L8.9711 4.42501C8.8429 4.55321 8.7788 4.69744 8.7788 4.85771C8.7788 5.01796 8.8429 5.16219 8.9711 5.29039L15.8346 12.1539C15.9628 12.2821 16.107 12.3462 16.2672 12.3462C16.4275 12.3462 16.5717 12.2821 16.6999 12.1539Z" fill="#CF385B"/>
<path d="M9.4346 13.4385L12.5692 10.3096L10.8153 8.55579L7.68649 11.6904L9.4346 13.4385Z" fill="#CF385B"/>
<path d="M10.1422 18.7116L11.2788 17.5692C11.407 17.441 11.4711 17.2968 11.4711 17.1366C11.4711 16.9763 11.407 16.8321 11.2788 16.7039L4.42109 9.8462C4.29289 9.718 4.14866 9.6539 3.98839 9.6539C3.82814 9.6539 3.68392 9.718 3.55572 9.8462L2.41339 10.9827C2.28519 11.1109 2.22109 11.2583 2.22109 11.425C2.22109 11.5917 2.28519 11.7391 2.41339 11.8673L9.2576 18.7116C9.3858 18.8398 9.5333 18.9039 9.6999 18.9039C9.8666 18.9039 10.014 18.8398 10.1422 18.7116Z" fill="#CF385B"/>
<path d="M16.8365 7.68654L17.3173 7.18079C17.4455 7.05257 17.5096 6.90834 17.5096 6.74809C17.5096 6.58783 17.4455 6.4436 17.3173 6.31539L14.8096 3.80769C14.6814 3.67949 14.5371 3.61539 14.3769 3.61539C14.2166 3.61539 14.0724 3.67949 13.9442 3.80769L13.4384 4.28846L16.8365 7.68654Z" fill="#CF385B"/>
<path d="M3.43839 14.3135L2.95187 14.7942C2.82365 14.9225 2.75954 15.0667 2.75954 15.2269C2.75954 15.3872 2.82365 15.5314 2.95187 15.6596L5.46532 18.1731C5.59353 18.3013 5.73777 18.3654 5.89802 18.3654C6.05827 18.3654 6.2025 18.3013 6.33072 18.1731L6.81147 17.6866L3.43839 14.3135Z" fill="#CF385B"/>
</g>
</svg>
