<svg width="25" height="24" viewBox="0 0 25 24" fill="none" xmlns="http://www.w3.org/2000/svg">
<mask id="mask0_4086_5926" style="mask-type:alpha" maskUnits="userSpaceOnUse" x="0" y="0" width="25" height="24">
<rect x="0.125" width="24" height="24" fill="#D9D9D9"/>
</mask>
<g mask="url(#mask0_4086_5926)">
<path d="M19.5249 9.37504L18.8365 8.68657L19.3173 8.18082C19.4455 8.0526 19.5096 7.90837 19.5096 7.74812C19.5096 7.58787 19.4455 7.44363 19.3173 7.31542L16.8096 4.80772C16.6814 4.67952 16.5371 4.61542 16.3769 4.61542C16.2166 4.61542 16.0724 4.67952 15.9442 4.80772L15.4384 5.28849L14.7249 4.57504L15.2826 3.99234C15.5762 3.69876 15.9358 3.55613 16.3615 3.56447C16.7871 3.5728 17.1467 3.72376 17.4403 4.01734L20.1076 6.68464C20.4012 6.97824 20.548 7.33369 20.548 7.75099C20.548 8.16831 20.4012 8.52376 20.1076 8.81734L19.5249 9.37504ZM8.96724 19.9577C8.67366 20.2513 8.31821 20.3981 7.90089 20.3981C7.48359 20.3981 7.12814 20.2513 6.83454 19.9577L4.24417 17.3674C3.93775 17.0609 3.78454 16.6799 3.78454 16.2241C3.78454 15.7683 3.93775 15.3872 4.24417 15.0808L4.72494 14.6L5.43839 15.3135L4.95187 15.7943C4.82365 15.9225 4.75954 16.0667 4.75954 16.227C4.75954 16.3872 4.82365 16.5315 4.95187 16.6597L7.46532 19.1731C7.59353 19.3013 7.73777 19.3654 7.89802 19.3654C8.05827 19.3654 8.2025 19.3013 8.33072 19.1731L8.81147 18.6866L9.52494 19.4L8.96724 19.9577ZM18.6999 13.1539L19.8365 12.0173C19.9647 11.8891 20.0288 11.7417 20.0288 11.575C20.0288 11.4084 19.9647 11.2609 19.8365 11.1327L12.9922 4.28849C12.864 4.16029 12.7166 4.09619 12.5499 4.09619C12.3833 4.09619 12.2358 4.16029 12.1076 4.28849L10.9711 5.42504C10.8429 5.55324 10.7788 5.69747 10.7788 5.85774C10.7788 6.01799 10.8429 6.16222 10.9711 6.29042L17.8346 13.1539C17.9628 13.2821 18.107 13.3462 18.2672 13.3462C18.4275 13.3462 18.5717 13.2821 18.6999 13.1539ZM12.1422 19.7116L13.2788 18.5693C13.407 18.4411 13.4711 18.2968 13.4711 18.1366C13.4711 17.9763 13.407 17.8321 13.2788 17.7039L6.42109 10.8462C6.29289 10.718 6.14866 10.6539 5.98839 10.6539C5.82814 10.6539 5.68392 10.718 5.55572 10.8462L4.41339 11.9827C4.28519 12.1109 4.22109 12.2584 4.22109 12.425C4.22109 12.5917 4.28519 12.7391 4.41339 12.8673L11.2576 19.7116C11.3858 19.8398 11.5333 19.9039 11.6999 19.9039C11.8666 19.9039 12.014 19.8398 12.1422 19.7116ZM11.4346 14.4385L14.5692 11.3097L12.8153 9.55582L9.68649 12.6904L11.4346 14.4385ZM12.8365 20.4193C12.5301 20.7257 12.1512 20.8789 11.6999 20.8789C11.2487 20.8789 10.8698 20.7257 10.5634 20.4193L3.70572 13.5616C3.3993 13.2552 3.24609 12.8763 3.24609 12.425C3.24609 11.9738 3.3993 11.5949 3.70572 11.2885L4.84224 10.1327C5.14866 9.82632 5.52975 9.67312 5.98552 9.67312C6.44129 9.67312 6.82238 9.82632 7.12879 10.1327L8.97302 11.977L12.1076 8.84234L10.2634 7.00389C9.95699 6.69747 9.80379 6.31542 9.80379 5.85774C9.80379 5.40004 9.95699 5.01798 10.2634 4.71157L11.4192 3.55582C11.7256 3.2494 12.1067 3.09619 12.5624 3.09619C13.0182 3.09619 13.3993 3.2494 13.7057 3.55582L20.5692 10.4193C20.8756 10.7257 21.0288 11.1068 21.0288 11.5625C21.0288 12.0183 20.8756 12.3994 20.5692 12.7058L19.4134 13.8616C19.107 14.168 18.7249 14.3212 18.2672 14.3212C17.8096 14.3212 17.4275 14.168 17.1211 13.8616L15.2826 12.0174L12.148 15.152L13.9922 16.9962C14.2987 17.3026 14.4519 17.6837 14.4519 18.1395C14.4519 18.5952 14.2987 18.9763 13.9922 19.2827L12.8365 20.4193Z" fill="#595959"/>
</g>
</svg>
